<svg width="1920" height="977" viewBox="0 0 1920 977" fill="none" xmlns="http://www.w3.org/2000/svg">
<mask id="path-1-inside-1" fill="white">
<path fill-rule="evenodd" clip-rule="evenodd" d="M1920 0L1920 12.6983L1920 72.3837L1920 85.0821H1198.8L808.221 172.739V172.794H807.974L807.057 173L806.139 172.794H0V977H1920V0Z"/>
</mask>
<path fill-rule="evenodd" clip-rule="evenodd" d="M1920 0L1920 12.6983L1920 72.3837L1920 85.0821H1198.8L808.221 172.739V172.794H807.974L807.057 173L806.139 172.794H0V977H1920V0Z" fill="#Cc1416"/>
<path d="M1920 12.6983L1915 12.6982L1915 12.6983L1920 12.6983ZM1920 0H1925L1915 -0.000144196L1920 0ZM1920 72.3837L1925 72.3838L1925 72.3837L1920 72.3837ZM1920 85.0821V90.0821H1925L1925 85.0821L1920 85.0821ZM1198.8 85.0821V80.0821H1198.25L1197.71 80.2034L1198.8 85.0821ZM808.221 172.739L807.126 167.86L803.221 168.736V172.739H808.221ZM808.221 172.794V177.794H813.221V172.794H808.221ZM807.974 172.794V167.794H807.42L806.879 167.915L807.974 172.794ZM807.057 173L805.962 177.879L807.057 178.124L808.151 177.879L807.057 173ZM806.139 172.794L807.234 167.915L806.693 167.794H806.139V172.794ZM0 172.794V167.794H-5V172.794H0ZM0 977H-5V982H0V977ZM1920 977V982H1925V977H1920ZM1925 12.6985L1925 0.000144196L1915 -0.000144196L1915 12.6982L1925 12.6985ZM1925 72.3837L1925 12.6983L1915 12.6983L1915 72.3837L1925 72.3837ZM1925 85.0821L1925 72.3838L1915 72.3837L1915 85.082L1925 85.0821ZM1198.8 90.0821H1920V80.0821H1198.8V90.0821ZM809.316 177.617L1199.9 89.9607L1197.71 80.2034L807.126 167.86L809.316 177.617ZM813.221 172.794V172.739H803.221V172.794H813.221ZM807.974 177.794H808.221V167.794H807.974V177.794ZM808.151 177.879L809.069 177.673L806.879 167.915L805.962 168.121L808.151 177.879ZM805.044 177.673L805.962 177.879L808.151 168.121L807.234 167.915L805.044 177.673ZM0 177.794H806.139V167.794H0V177.794ZM5 977V172.794H-5V977H5ZM1920 972H0V982H1920V972ZM1915 0V977H1925V0H1915Z" fill="#1E1E1E" mask="url(#path-1-inside-1)"/>
<path d="M130 400.407L256.126 480L130 559.593V400.407Z" fill="#D7DA1A" stroke="#1E1E1E" stroke-width="2"/>
</svg>
